<svg width="205" height="204" viewBox="0 0 205 204" fill="none" xmlns="http://www.w3.org/2000/svg">
<rect width="205" height="204" fill="#44475A"/>
<path d="M143.813 167.21H61.187V178H143.813V167.21Z" fill="#BD93F9"/>
<path d="M132.014 140.621H72.8694V161.119H132.014V140.621Z" fill="#BD93F9"/>
<path d="M31 27V134.623H174V27H31ZM166.182 123.245C166.182 124.915 164.923 126.244 163.342 126.244H41.6577C40.0766 126.244 38.8176 124.915 38.8176 123.245V38.3776C38.8176 36.708 40.0766 35.3786 41.6577 35.3786H163.342C164.923 35.3786 166.182 36.708 166.182 38.3776V123.245Z" fill="#BD93F9"/>
<path d="M44.4977 120.247H160.502V41.3765H44.4977V120.247ZM121.678 87.0414C121.678 86.4539 122.029 85.9593 122.468 85.7119L138.484 77.9208L122.468 70.2533C122 70.0059 121.678 69.5422 121.678 68.9238V62.864C121.678 61.8438 122.673 61.1945 123.523 61.6274L147.649 73.4687C148.117 73.716 148.439 74.1798 148.439 74.7981V81.5072C148.439 82.0946 148.088 82.5893 147.649 82.8366L123.523 94.5543C122.644 94.9871 121.649 94.3069 121.649 93.2867V87.0414H121.678ZM86.1914 105.283L108.385 55.042C108.619 54.5473 109.059 54.2072 109.644 54.2072H114.68C115.705 54.2072 116.408 55.3512 115.968 56.3405L93.7455 106.581C93.5113 107.076 93.0721 107.416 92.4865 107.416H87.4505C86.455 107.416 85.7523 106.272 86.1914 105.283ZM56.6486 74.829C56.6486 74.2416 57 73.7469 57.4392 73.4996L81.5946 61.6583C82.4437 61.2254 83.4392 61.9056 83.4392 62.895V69.0784C83.4392 69.6659 83.0878 70.1605 82.6486 70.4079L66.6329 78.0754L82.6486 85.8665C83.1171 86.1138 83.4392 86.5776 83.4392 87.1959V93.5031C83.4392 94.4924 82.473 95.1726 81.5946 94.7398L57.4392 83.0221C56.9707 82.7748 56.6486 82.311 56.6486 81.6927V74.829Z" fill="#8BE9FD"/>
</svg>
